<svg xmlns="http://www.w3.org/2000/svg" xmlns:xlink="http://www.w3.org/1999/xlink" width="148" height="48" viewBox="0 0 148 48">
  <defs>
    <style>
      .cls-1 {
        fill: #532d80;
      }

      .cls-2, .cls-3, .cls-4, .cls-5, .cls-6, .cls-7, .cls-8, .cls-9 {
        fill-rule: evenodd;
      }

      .cls-2 {
        fill: url(#linear-gradient);
      }

      .cls-3 {
        fill: url(#linear-gradient-2);
      }

      .cls-4 {
        fill: url(#linear-gradient-3);
      }

      .cls-5 {
        fill: url(#linear-gradient-4);
      }

      .cls-6 {
        opacity: 0.2;
      }

      .cls-6, .cls-7, .cls-8 {
        isolation: isolate;
      }

      .cls-7 {
        opacity: 0.12;
      }

      .cls-8, .cls-9 {
        fill: #fff;
      }

      .cls-8 {
        opacity: 0.25;
      }
    </style>
    <linearGradient id="linear-gradient" x1="34.065" y1="-3.123" x2="33.082" y2="-2.861" gradientUnits="objectBoundingBox">
      <stop offset="0" stop-color="#00a0ff"/>
      <stop offset="0.007" stop-color="#00a1ff"/>
      <stop offset="0.26" stop-color="#00beff"/>
      <stop offset="0.512" stop-color="#00d2ff"/>
      <stop offset="0.76" stop-color="#00dfff"/>
      <stop offset="1" stop-color="#00e3ff"/>
    </linearGradient>
    <linearGradient id="linear-gradient-2" x1="45.345" y1="-2.811" x2="43.05" y2="-2.811" gradientUnits="objectBoundingBox">
      <stop offset="0" stop-color="#ffe000"/>
      <stop offset="0.409" stop-color="#ffbd00"/>
      <stop offset="0.775" stop-color="orange"/>
      <stop offset="1" stop-color="#ff9c00"/>
    </linearGradient>
    <linearGradient id="linear-gradient-3" x1="25.406" y1="-4.365" x2="24.606" y2="-3.018" gradientUnits="objectBoundingBox">
      <stop offset="0" stop-color="#ff3a44"/>
      <stop offset="1" stop-color="#c31162"/>
    </linearGradient>
    <linearGradient id="linear-gradient-4" x1="24.79" y1="-4.667" x2="25.147" y2="-4.065" gradientUnits="objectBoundingBox">
      <stop offset="0" stop-color="#32a071"/>
      <stop offset="0.069" stop-color="#2da771"/>
      <stop offset="0.476" stop-color="#15cf74"/>
      <stop offset="0.801" stop-color="#06e775"/>
      <stop offset="1" stop-color="#00f076"/>
    </linearGradient>
  </defs>
  <g id="btn_google_play" transform="translate(-1214 -23.219)">
    <rect id="Rectangle_237" data-name="Rectangle 237" class="cls-1" width="148" height="48" rx="5" transform="translate(1214 23.219)"/>
    <g id="Group_4474" data-name="Group 4474" transform="translate(1091.538 -258.807)">
      <g id="g1231" transform="translate(138.462 292.026)">
        <path id="path1192" class="cls-2" d="M138.946,294.851a2.155,2.155,0,0,0-.484,1.5v23.519a2.055,2.055,0,0,0,.5,1.489l.083.07,13.178-13.178v-.3l-13.19-13.175Z" transform="translate(-138.462 -294.432)"/>
        <path id="path1203" class="cls-3" d="M251.337,373.17l-4.4-4.4v-.308l4.4-4.4.095.059,5.2,2.955c1.489.84,1.489,2.222,0,3.073l-5.2,2.955-.1.059Z" transform="translate(-233.195 -354.939)"/>
        <path id="path1210" class="cls-4" d="M160.036,404.474l-4.49-4.492-13.262,13.262a1.739,1.739,0,0,0,2.211.07l15.541-8.84" transform="translate(-141.8 -386.302)"/>
        <path id="path1223" class="cls-5" d="M160.036,301.242l-15.541-8.829a1.724,1.724,0,0,0-2.211.07l13.26,13.249Z" transform="translate(-141.8 -292.053)"/>
        <path id="path1225" class="cls-6" d="M160.021,434.682l-15.435,8.77a1.754,1.754,0,0,1-2.127.012l-.083.083.083.07a1.756,1.756,0,0,0,2.127-.011l15.541-8.829Z" transform="translate(-141.879 -416.605)"/>
        <path id="path1227" class="cls-7" d="M286.846,401.365l-5.307,3.014.095.095,5.2-2.955a1.864,1.864,0,0,0,1.111-1.537,1.922,1.922,0,0,1-1.1,1.383Z" transform="translate(-263.409 -386.302)"/>
        <path id="path1229" class="cls-8" d="M141.157,292.54,161.9,304.324a1.949,1.949,0,0,1,1.111,1.383,1.866,1.866,0,0,0-1.111-1.537l-20.742-11.784c-1.489-.851-2.7-.142-2.7,1.56v.154C138.462,292.4,139.668,291.7,141.157,292.54Z" transform="translate(-138.462 -292.026)"/>
      </g>
      <g id="g1237" transform="translate(168.07 298.125)">
        <path id="path1233" class="cls-9" d="M372.121,346.991a6.93,6.93,0,0,1,6.934-6.835,6.521,6.521,0,0,1,4.683,1.883l-1.317,1.317a4.757,4.757,0,0,0-3.368-1.333,4.968,4.968,0,0,0,0,9.935,4.564,4.564,0,0,0,3.45-1.368,3.9,3.9,0,0,0,1.018-2.35h-4.465v-1.863h6.284a6.724,6.724,0,0,1-1.518,5.534,6.251,6.251,0,0,1-4.768,1.918,6.928,6.928,0,0,1-6.936-6.835Zm18.4-1.966a4.4,4.4,0,1,0,4.417,4.4A4.341,4.341,0,0,0,390.52,345.025Zm0,7.069A2.675,2.675,0,1,1,393,349.426,2.547,2.547,0,0,1,390.52,352.094Zm9.638-7.069a4.4,4.4,0,1,0,4.417,4.4,4.338,4.338,0,0,0-4.417-4.4Zm0,7.069a2.675,2.675,0,1,1,2.484-2.668,2.547,2.547,0,0,1-2.484,2.668Zm11.828-6.8v.716h-.066a3.04,3.04,0,0,0-2.316-.985,4.406,4.406,0,0,0,0,8.8,3,3,0,0,0,2.316-1h.066v.633c0,1.683-.9,2.584-2.35,2.584a2.438,2.438,0,0,1-2.218-1.565l-1.685.7a4.2,4.2,0,0,0,3.9,2.6c2.265,0,4.183-1.335,4.183-4.585v-7.9Zm-2.216,6.8a2.677,2.677,0,0,1,0-5.334,2.688,2.688,0,0,1,0,5.334Zm5.383-11.47h1.935V353.56h-1.935Zm7.237,11.47a2.236,2.236,0,0,1-2.132-1.333l5.885-2.436-.2-.5a4.09,4.09,0,0,0-3.767-2.8,4.183,4.183,0,0,0-4.151,4.4,4.307,4.307,0,0,0,4.368,4.4,4.373,4.373,0,0,0,3.668-1.951l-1.5-1a2.514,2.514,0,0,1-2.168,1.217Zm-.151-5.369a1.705,1.705,0,0,1,1.633.933l-3.936,1.634a2.416,2.416,0,0,1,2.3-2.567Z" transform="translate(-372.118 -340.156)"/>
        <path id="path1235" class="cls-9" d="M833.586,343.843H828.96V356.78h1.93v-4.9h2.7a4.024,4.024,0,1,0,0-8.035Zm.05,6.235h-2.745v-4.436h2.745a2.218,2.218,0,1,1,0,4.436Zm7.19,6.7V343.843H838.9V356.78Zm8.672-.023V351.8c0-2.3-1.716-3.578-3.931-3.578a3.625,3.625,0,0,0-3.443,1.981l1.713.714a1.832,1.832,0,0,1,1.765-.949,1.857,1.857,0,0,1,2.028,1.666v.134a4.261,4.261,0,0,0-2.014-.5c-1.847,0-3.727,1.015-3.727,2.912a2.988,2.988,0,0,0,3.213,2.846,2.721,2.721,0,0,0,2.462-1.263h.066v1H849.5Zm-4.161-1.446c-.633,0-1.515-.316-1.515-1.1,0-1,1.1-1.384,2.048-1.384a3.442,3.442,0,0,1,1.765.433,2.346,2.346,0,0,1-2.3,2.048Zm10.95-6.808-2.214,5.607h-.066l-2.3-5.607h-2.08l3.444,7.84-1.965,4.36h2.014l5.308-12.2Z" transform="translate(-771.071 -343.376)"/>
      </g>
    </g>
  </g>
</svg>
