<?xml version="1.0" encoding="utf-8"?>
<!-- Generator: Adobe Illustrator 24.0.2, SVG Export Plug-In . SVG Version: 6.00 Build 0)  -->
<svg version="1.1" id="Layer_1" xmlns="http://www.w3.org/2000/svg" xmlns:xlink="http://www.w3.org/1999/xlink" x="0px" y="0px"
	 viewBox="0 0 148 48" style="enable-background:new 0 0 148 48;" xml:space="preserve">
<style type="text/css">
	.st0{fill:#FFCE39;}
	.st1{fill-rule:evenodd;clip-rule:evenodd;fill:url(#path1192_1_);}
	.st2{fill-rule:evenodd;clip-rule:evenodd;fill:url(#path1203_1_);}
	.st3{fill-rule:evenodd;clip-rule:evenodd;fill:url(#path1210_1_);}
	.st4{fill-rule:evenodd;clip-rule:evenodd;fill:url(#path1223_1_);}
	.st5{opacity:0.2;fill-rule:evenodd;clip-rule:evenodd;enable-background:new    ;}
	.st6{opacity:0.12;fill-rule:evenodd;clip-rule:evenodd;enable-background:new    ;}
	.st7{opacity:0.25;fill-rule:evenodd;clip-rule:evenodd;fill:#FFFFFF;enable-background:new    ;}
	.st8{fill-rule:evenodd;clip-rule:evenodd;}
</style>
<path id="Rectangle_237" class="st0" d="M5,0h138c2.8,0,5,2.2,5,5v38c0,2.8-2.2,5-5,5H5c-2.8,0-5-2.2-5-5V5C0,2.2,2.2,0,5,0z"/>
<g id="Group_4474" transform="translate(1091.538 -258.807)">
	<g id="g1231" transform="translate(138.462 292.026)">
		
			<linearGradient id="path1192_1_" gradientUnits="userSpaceOnUse" x1="-4068.7092" y1="30.4416" x2="-4069.6924" y2="30.7036" gradientTransform="matrix(13.7658 0 0 26.653 55245.2813 -1052.8833)">
			<stop  offset="0" style="stop-color:#00A0FF"/>
			<stop  offset="7.000001e-03" style="stop-color:#00A1FF"/>
			<stop  offset="0.26" style="stop-color:#00BEFF"/>
			<stop  offset="0.512" style="stop-color:#00D2FF"/>
			<stop  offset="0.76" style="stop-color:#00DFFF"/>
			<stop  offset="1" style="stop-color:#00E3FF"/>
		</linearGradient>
		<path id="path1192" class="st1" d="M-1213.5-22.8c-0.3,0.4-0.5,1-0.5,1.5V2.2c0,0.5,0.1,1.1,0.5,1.5l0.1,0.1l13.2-13.2v-0.3
			L-1213.5-22.8L-1213.5-22.8z"/>
		
			<linearGradient id="path1203_1_" gradientUnits="userSpaceOnUse" x1="-4020.9446" y1="113.5864" x2="-4023.2397" y2="113.5864" gradientTransform="matrix(10.8118 0 0 9.108 42763.5859 -1044.0951)">
			<stop  offset="0" style="stop-color:#FFE000"/>
			<stop  offset="0.409" style="stop-color:#FFBD00"/>
			<stop  offset="0.775" style="stop-color:#FFA500"/>
			<stop  offset="1" style="stop-color:#FF9C00"/>
		</linearGradient>
		<path id="path1203" class="st2" d="M-1195.9-5l-4.4-4.4v-0.3l4.4-4.4l0.1,0.1l5.2,3c1.5,0.8,1.5,2.2,0,3.1L-1195.9-5L-1195.9-5
			L-1195.9-5z"/>
		
			<linearGradient id="path1210_1_" gradientUnits="userSpaceOnUse" x1="-4121.0977" y1="61.2185" x2="-4121.8979" y2="62.5655" gradientTransform="matrix(17.752 0 0 13.6947 72107.4453 -1039.5219)">
			<stop  offset="0" style="stop-color:#FF3A44"/>
			<stop  offset="1" style="stop-color:#C31162"/>
		</linearGradient>
		<path id="path1210" class="st3" d="M-1195.8-5l-4.5-4.5l-13.3,13.3c0.6,0.5,1.6,0.6,2.2,0.1L-1195.8-5"/>
		
			<linearGradient id="path1223_1_" gradientUnits="userSpaceOnUse" x1="-4125.6753" y1="82.5537" x2="-4125.3179" y2="83.1557" gradientTransform="matrix(17.752 0 0 13.6862 72107.4453 -1053.2004)">
			<stop  offset="0" style="stop-color:#32A071"/>
			<stop  offset="6.900000e-02" style="stop-color:#2DA771"/>
			<stop  offset="0.476" style="stop-color:#15CF74"/>
			<stop  offset="0.801" style="stop-color:#06E775"/>
			<stop  offset="1" style="stop-color:#00F076"/>
		</linearGradient>
		<path id="path1223" class="st4" d="M-1195.8-14l-15.5-8.8c-0.7-0.5-1.6-0.5-2.2,0.1l13.3,13.2L-1195.8-14z"/>
		<path id="path1225" class="st5" d="M-1195.9-5.1l-15.4,8.8c-0.6,0.5-1.5,0.5-2.1,0l-0.1,0.1l0.1,0.1c0.6,0.5,1.5,0.5,2.1,0
			l15.5-8.8L-1195.9-5.1z"/>
		<path id="path1227" class="st6" d="M-1190.6-8.2l-5.3,3l0.1,0.1L-1190.6-8.2c0.6-0.2,1-0.8,1.1-1.4
			C-1189.6-8.9-1190-8.4-1190.6-8.2L-1190.6-8.2z"/>
		<path id="path1229" class="st7" d="M-1211.3-22.7l20.7,11.8c0.6,0.3,1,0.8,1.1,1.4c-0.1-0.7-0.5-1.3-1.1-1.5l-20.7-11.8
			c-1.5-0.9-2.7-0.1-2.7,1.6v0.2C-1214-22.8-1212.8-23.5-1211.3-22.7z"/>
	</g>
	<g id="g1237" transform="translate(168.07 298.125)">
		<path id="path1233" class="st8" d="M-1214-16.4c0.1-3.8,3.1-6.8,6.9-6.8c1.8,0,3.4,0.7,4.7,1.9l-1.3,1.3c-0.9-0.9-2.1-1.4-3.4-1.3
			c-2.7,0-4.9,2.3-4.9,5s2.2,4.9,4.9,4.9c1.3,0.1,2.5-0.4,3.4-1.4c0.6-0.6,1-1.5,1-2.4h-4.5V-17h6.3c0.3,2-0.2,4-1.5,5.5
			c-1.2,1.3-3,2-4.8,1.9C-1210.9-9.5-1213.9-12.6-1214-16.4L-1214-16.4z M-1195.6-18.4c-2.4,0-4.4,2-4.4,4.4s2,4.4,4.4,4.4
			s4.4-2,4.4-4.4S-1193.1-18.4-1195.6-18.4L-1195.6-18.4L-1195.6-18.4z M-1195.6-11.3c-1.5,0.1-2.8-1-2.9-2.5s1-2.8,2.5-2.9
			s2.8,1,2.9,2.5c0,0.1,0,0.1,0,0.2C-1193.1-12.5-1194.1-11.4-1195.6-11.3L-1195.6-11.3L-1195.6-11.3z M-1186-18.4
			c-2.4,0-4.4,2-4.4,4.4s2,4.4,4.4,4.4s4.4-2,4.4-4.4S-1183.5-18.4-1186-18.4C-1185.9-18.4-1185.9-18.4-1186-18.4z M-1186-11.3
			c-1.5,0.1-2.8-1-2.9-2.5s1-2.8,2.5-2.9s2.8,1,2.9,2.5c0,0.1,0,0.1,0,0.2C-1183.4-12.5-1184.5-11.4-1186-11.3
			C-1185.9-11.3-1185.9-11.3-1186-11.3z M-1174.1-18.1v0.7h-0.1c-0.6-0.6-1.4-1-2.3-1c-2.4,0.1-4.3,2.2-4.2,4.6
			c0.1,2.3,1.9,4.1,4.2,4.2c0.9,0,1.7-0.3,2.3-1h0.1v0.6c0,1.7-0.9,2.6-2.3,2.6c-1,0-1.9-0.6-2.2-1.6l-1.7,0.7
			c0.7,1.6,2.2,2.6,3.9,2.6c2.3,0,4.2-1.3,4.2-4.6v-7.9L-1174.1-18.1z M-1176.3-11.3c-1.5-0.1-2.6-1.4-2.4-2.9
			c0.1-1.3,1.1-2.3,2.4-2.4c1.5,0.2,2.5,1.5,2.3,3C-1174.2-12.4-1175.1-11.4-1176.3-11.3z M-1171-22.8h1.9v12.9h-1.9V-22.8z
			 M-1163.7-11.3c-0.9,0-1.8-0.5-2.1-1.3l5.9-2.4l-0.2-0.5c-0.5-1.6-2-2.8-3.8-2.8c-2.3,0-4.2,1.9-4.2,4.2c0,0.1,0,0.1,0,0.2
			c-0.1,2.4,1.8,4.3,4.2,4.4c0.1,0,0.1,0,0.2,0c1.5,0,2.9-0.7,3.7-2l-1.5-1C-1162-11.7-1162.8-11.3-1163.7-11.3L-1163.7-11.3z
			 M-1163.9-16.6c0.7,0,1.3,0.3,1.6,0.9l-3.9,1.6C-1166.3-15.4-1165.3-16.6-1163.9-16.6L-1163.9-16.6L-1163.9-16.6z"/>
		<path id="path1235" class="st8" d="M-1151.5-22.8h-4.6v12.9h1.9v-4.9h2.7c2.2,0.1,4.1-1.6,4.2-3.8s-1.6-4.1-3.8-4.2
			C-1151.2-22.8-1151.3-22.8-1151.5-22.8L-1151.5-22.8z M-1151.4-16.5h-2.7V-21h2.7c1.2,0,2.2,1,2.2,2.2
			C-1149.2-17.5-1150.2-16.5-1151.4-16.5z M-1144.2-9.8v-12.9h-1.9v12.9L-1144.2-9.8z M-1135.6-9.8v-5c0-2.3-1.7-3.6-3.9-3.6
			c-1.4-0.1-2.8,0.7-3.4,2l1.7,0.7c0.3-0.6,1-1,1.8-0.9c1-0.1,1.9,0.6,2,1.7v0.1c-0.6-0.3-1.3-0.5-2-0.5c-1.8,0-3.7,1-3.7,2.9
			c0.1,1.6,1.5,2.9,3.1,2.9h0.1c1,0.1,1.9-0.4,2.5-1.3h0.1v1H-1135.6L-1135.6-9.8z M-1139.7-11.3c-0.6,0-1.5-0.3-1.5-1.1
			c0-1,1.1-1.4,2-1.4c0.6,0,1.2,0.1,1.8,0.4C-1137.6-12.2-1138.6-11.3-1139.7-11.3L-1139.7-11.3z M-1128.8-18.1l-2.2,5.6h-0.1
			l-2.3-5.6h-2.1l3.4,7.8l-2,4.4h2l5.3-12.2H-1128.8z"/>
	</g>
</g>
</svg>
