<svg width="148" height="48" viewBox="0 0 148 48" fill="none" xmlns="http://www.w3.org/2000/svg">
<path d="M143 1H5C2.79086 1 1 2.79086 1 5V43C1 45.2091 2.79086 47 5 47H143C145.209 47 147 45.2091 147 43V5C147 2.79086 145.209 1 143 1Z" stroke="#532D80" stroke-width="2"/>
<path d="M59.319 19.048V20.184H57.639V29H56.407V20.184H54.743V19.048H56.215C56.0443 18.8453 55.8683 18.632 55.687 18.408C55.5163 18.184 55.3616 17.96 55.223 17.736C55.5856 17.1067 55.975 16.536 56.391 16.024C56.807 15.5013 57.2976 15.0907 57.863 14.792C58.4283 14.4827 59.111 14.328 59.911 14.328C60.4763 14.328 61.015 14.3973 61.527 14.536C62.0496 14.6747 62.5616 14.8773 63.063 15.144C63.5643 15.4 64.071 15.7147 64.583 16.088C65.095 16.4507 65.6283 16.856 66.183 17.304L65.511 18.168C64.775 17.5707 64.1083 17.0747 63.511 16.68C62.9243 16.2853 62.359 15.992 61.815 15.8C61.2816 15.5973 60.711 15.496 60.103 15.496C59.5163 15.496 59.0043 15.5973 58.567 15.8C58.1403 16.0027 57.767 16.2853 57.447 16.648C57.1376 17.0107 56.855 17.432 56.599 17.912C56.6843 18.072 56.8016 18.248 56.951 18.44C57.1003 18.632 57.271 18.8347 57.463 19.048H59.319ZM65.905 28.312C65.2116 28.312 64.561 28.2 63.953 27.976C63.345 27.752 62.7743 27.3787 62.241 26.856C61.7183 26.3333 61.2383 25.64 60.801 24.776C60.3636 23.912 59.969 22.84 59.617 21.56L60.833 21.24C61.217 22.648 61.649 23.784 62.129 24.648C62.6196 25.5013 63.169 26.1253 63.777 26.52C64.3956 26.904 65.0943 27.096 65.873 27.096C66.4383 27.096 66.9183 26.9947 67.313 26.792C67.7183 26.5893 68.0276 26.312 68.241 25.96C68.4543 25.5973 68.561 25.1867 68.561 24.728C68.561 24.408 68.529 24.12 68.465 23.864C68.401 23.608 68.3103 23.3787 68.193 23.176C68.0863 22.9627 67.9636 22.7813 67.825 22.632L68.593 21.384C68.9983 21.9707 69.297 22.5413 69.489 23.096C69.681 23.6507 69.777 24.2 69.777 24.744C69.777 25.416 69.6276 26.024 69.329 26.568C69.0303 27.1013 68.593 27.528 68.017 27.848C67.4516 28.1573 66.7476 28.312 65.905 28.312ZM65.297 24.456C64.625 24.456 64.097 24.2907 63.713 23.96C63.329 23.6187 63.137 23.1547 63.137 22.568C63.137 22.3227 63.1743 22.0827 63.249 21.848C63.3236 21.6027 63.4036 21.3947 63.489 21.224L64.769 21.608C64.6943 21.7147 64.625 21.848 64.561 22.008C64.497 22.168 64.465 22.3333 64.465 22.504C64.465 22.792 64.545 23 64.705 23.128C64.865 23.256 65.073 23.32 65.329 23.32C65.553 23.32 65.777 23.2773 66.001 23.192C66.225 23.1067 66.465 22.9413 66.721 22.696C66.9876 22.44 67.2756 22.056 67.585 21.544L68.593 21.384L68.465 22.248C68.177 22.728 67.873 23.1333 67.553 23.464C67.2436 23.784 66.9023 24.0293 66.529 24.2C66.1663 24.3707 65.7556 24.456 65.297 24.456ZM70.849 19.048V20.184H58.993V19.048H70.849ZM75.1002 19.048V20.184H73.4202V29H72.1882V20.184H70.5242V19.048H71.9962C71.8255 18.8453 71.6495 18.632 71.4682 18.408C71.2975 18.184 71.1429 17.96 71.0042 17.736C71.3669 17.1067 71.7562 16.536 72.1722 16.024C72.5882 15.5013 73.0789 15.0907 73.6442 14.792C74.2095 14.4827 74.8922 14.328 75.6922 14.328C76.2575 14.328 76.7962 14.3973 77.3082 14.536C77.8309 14.6747 78.3429 14.8773 78.8442 15.144C79.3455 15.4 79.8522 15.7147 80.3642 16.088C80.8762 16.4507 81.4095 16.856 81.9642 17.304L81.2922 18.168C80.5562 17.5707 79.8895 17.0747 79.2922 16.68C78.7055 16.2853 78.1402 15.992 77.5962 15.8C77.0629 15.5973 76.4922 15.496 75.8842 15.496C75.2975 15.496 74.7855 15.5973 74.3482 15.8C73.9215 16.0027 73.5482 16.2853 73.2282 16.648C72.9189 17.0107 72.6362 17.432 72.3802 17.912C72.4655 18.072 72.5829 18.248 72.7322 18.44C72.8815 18.632 73.0522 18.8347 73.2442 19.048H75.1002ZM86.4862 19.048V20.184H80.6302V23.048C80.6302 23.3573 80.6782 23.5867 80.7742 23.736C80.8702 23.8747 81.0195 23.944 81.2222 23.944C81.4249 23.944 81.6329 23.88 81.8462 23.752C82.0702 23.624 82.3102 23.4213 82.5662 23.144C82.8222 22.8667 83.0995 22.5093 83.3982 22.072L84.3582 21.928C84.6995 22.4293 84.9609 22.9467 85.1422 23.48C85.3342 24.0133 85.4302 24.5467 85.4302 25.08C85.4302 25.752 85.2809 26.3547 84.9822 26.888C84.6942 27.4213 84.2622 27.8427 83.6862 28.152C83.1209 28.4613 82.4275 28.616 81.6062 28.616C80.9022 28.616 80.2462 28.4933 79.6382 28.248C79.0302 28.0027 78.4702 27.608 77.9582 27.064C77.4462 26.5093 76.9769 25.784 76.5502 24.888C76.1235 23.9813 75.7395 22.872 75.3982 21.56L76.6142 21.24C76.9982 22.7227 77.4195 23.9173 77.8782 24.824C78.3475 25.72 78.8809 26.376 79.4782 26.792C80.0755 27.1973 80.7635 27.4 81.5422 27.4C82.3955 27.4 83.0515 27.1867 83.5102 26.76C83.9795 26.3333 84.2142 25.784 84.2142 25.112C84.2142 24.632 84.1449 24.2213 84.0062 23.88C83.8782 23.5387 83.7075 23.256 83.4942 23.032L84.2302 22.728C83.9102 23.272 83.5795 23.72 83.2382 24.072C82.9075 24.424 82.5715 24.6907 82.2302 24.872C81.8995 25.0427 81.5689 25.128 81.2382 25.128C80.9929 25.128 80.7635 25.096 80.5502 25.032C80.3369 24.9573 80.1555 24.8507 80.0062 24.712C79.8355 24.5627 79.6915 24.3547 79.5742 24.088C79.4569 23.8107 79.3982 23.352 79.3982 22.712V20.184H74.7742V19.048H86.4862ZM94.4688 18.936C95.2902 18.936 95.9248 19.144 96.3728 19.56C96.8315 19.976 97.0608 20.5467 97.0608 21.272C97.0608 21.784 96.9275 22.2427 96.6608 22.648C96.4048 23.0533 96.0475 23.4053 95.5888 23.704C95.1302 24.0027 94.6022 24.264 94.0048 24.488L93.5088 23.336C94.2235 23.1013 94.7782 22.8293 95.1728 22.52C95.5782 22.2 95.7808 21.7893 95.7808 21.288C95.7808 20.8933 95.6688 20.5947 95.4448 20.392C95.2208 20.1787 94.8955 20.072 94.4688 20.072C94.0848 20.072 93.7222 20.136 93.3808 20.264C93.0395 20.392 92.7355 20.5573 92.4688 20.76C92.2022 20.952 91.9942 21.16 91.8448 21.384C91.6955 21.5973 91.6208 21.7947 91.6208 21.976C91.6208 22.1467 91.6742 22.296 91.7808 22.424C91.8875 22.5413 92.1275 22.6267 92.5008 22.68L92.1648 23.864C91.5568 23.7467 91.0982 23.5387 90.7888 23.24C90.4902 22.9413 90.3408 22.5627 90.3408 22.104C90.3408 21.7413 90.4475 21.3787 90.6608 21.016C90.8848 20.6427 91.1888 20.3013 91.5728 19.992C91.9568 19.672 92.3942 19.416 92.8848 19.224C93.3862 19.032 93.9142 18.936 94.4688 18.936ZM97.2208 25.4C97.2208 26.2853 96.8902 26.9947 96.2288 27.528C95.5782 28.0613 94.6928 28.328 93.5728 28.328C92.8262 28.328 92.1168 28.1947 91.4448 27.928C90.7728 27.6613 90.1488 27.2347 89.5728 26.648C89.0075 26.0613 88.4848 25.2933 88.0048 24.344C87.5355 23.3947 87.1248 22.2427 86.7728 20.888L87.9728 20.536C88.3995 22.0613 88.8742 23.3093 89.3968 24.28C89.9302 25.2507 90.5382 25.9653 91.2208 26.424C91.9142 26.8827 92.7088 27.112 93.6048 27.112C94.2768 27.112 94.8315 26.9733 95.2688 26.696C95.7062 26.408 95.9248 25.96 95.9248 25.352C95.9248 24.936 95.7862 24.584 95.5088 24.296C95.2422 24.008 94.8955 23.7733 94.4688 23.592L95.7488 23.032C96.2182 23.288 96.5808 23.6187 96.8368 24.024C97.0928 24.4293 97.2208 24.888 97.2208 25.4ZM107.818 19.048V20.184H107.498C107.167 20.2587 106.81 20.424 106.426 20.68C106.042 20.9253 105.679 21.2507 105.338 21.656C104.996 22.0507 104.714 22.5147 104.49 23.048C104.276 23.5813 104.17 24.168 104.17 24.808C104.17 25.576 104.282 26.1893 104.506 26.648C104.74 27.096 105.028 27.416 105.37 27.608C105.711 27.8 106.052 27.896 106.394 27.896C106.66 27.896 106.884 27.8693 107.066 27.816C107.247 27.7627 107.455 27.6667 107.69 27.528L108.25 28.504C107.972 28.7173 107.668 28.8667 107.338 28.952C107.007 29.0373 106.671 29.08 106.33 29.08C105.658 29.08 105.066 28.904 104.554 28.552C104.042 28.2 103.636 27.7093 103.338 27.08C103.05 26.44 102.906 25.6933 102.906 24.84C102.906 24.0187 103.034 23.288 103.29 22.648C103.556 21.9973 103.898 21.432 104.314 20.952C104.74 20.472 105.199 20.0773 105.69 19.768C106.18 19.448 106.655 19.208 107.114 19.048H107.818ZM117.461 19.048V20.184H110.197V24.952L109.973 24.632C110.4 24.152 110.885 23.704 111.429 23.288C111.973 22.872 112.565 22.4933 113.205 22.152C113.845 21.8 114.528 21.4907 115.253 21.224L116.293 22.248C116.09 22.6213 115.925 22.984 115.797 23.336C115.68 23.688 115.589 24.056 115.525 24.44C115.472 24.824 115.445 25.2507 115.445 25.72C115.445 26.2427 115.488 26.744 115.573 27.224C115.658 27.704 115.802 28.2427 116.005 28.84L114.805 29.112C114.613 28.4933 114.464 27.8907 114.357 27.304C114.25 26.7067 114.197 26.088 114.197 25.448C114.197 25.0107 114.229 24.6 114.293 24.216C114.357 23.832 114.442 23.4907 114.549 23.192C114.666 22.8827 114.784 22.632 114.901 22.44L115.093 22.52C114.485 22.7653 113.893 23.064 113.317 23.416C112.741 23.768 112.176 24.1733 111.621 24.632C111.066 25.0907 110.496 25.6133 109.909 26.2L108.965 25.56V20.184H107.493V19.048H117.461ZM128.59 19.048V20.184H126.91V29H125.678C125.379 28.5627 125.038 28.1413 124.654 27.736C124.27 27.3307 123.843 26.9573 123.374 26.616C122.904 26.2747 122.387 25.9813 121.822 25.736C121.256 25.4907 120.632 25.3093 119.95 25.192L119.566 23.704L120.334 24.264C121.326 24.4347 122.163 24.696 122.846 25.048C123.539 25.3893 124.115 25.7733 124.574 26.2C125.043 26.6267 125.422 27.0427 125.71 27.448C125.699 27.2027 125.688 26.9573 125.678 26.712C125.678 26.4667 125.678 26.2 125.678 25.912V17.992H126.526L126.894 19.048H128.59ZM124.494 21.48C124.494 22.0987 124.323 22.6267 123.982 23.064C123.651 23.4907 123.192 23.832 122.606 24.088C122.03 24.3333 121.374 24.4987 120.638 24.584L119.886 24.44L119.566 23.704C120.43 23.64 121.134 23.5173 121.678 23.336C122.232 23.144 122.638 22.8987 122.894 22.6C123.16 22.2907 123.294 21.9387 123.294 21.544C123.294 21.2133 123.219 20.9147 123.07 20.648C122.92 20.3813 122.68 20.12 122.35 19.864L123.23 19C123.592 19.3307 123.891 19.7093 124.126 20.136C124.371 20.552 124.494 21 124.494 21.48ZM120.206 22.12C119.555 22.12 119.038 21.9547 118.654 21.624C118.27 21.2827 118.078 20.8187 118.078 20.232C118.078 19.9867 118.11 19.752 118.174 19.528C118.248 19.304 118.334 19.112 118.43 18.952L119.646 19.288C119.571 19.3947 119.507 19.528 119.454 19.688C119.4 19.8373 119.374 19.9973 119.374 20.168C119.374 20.4453 119.448 20.6533 119.598 20.792C119.758 20.92 119.96 20.984 120.206 20.984C120.419 20.984 120.643 20.9413 120.878 20.856C121.112 20.7707 121.352 20.6 121.598 20.344C121.854 20.088 122.104 19.7093 122.35 19.208L123.23 19L123.262 19.8C123.048 20.2693 122.792 20.68 122.494 21.032C122.195 21.3733 121.854 21.64 121.47 21.832C121.096 22.024 120.675 22.12 120.206 22.12ZM123.858 33.256C123.57 33.256 123.256 33.192 122.914 33.064C122.573 32.9467 122.285 32.7547 122.05 32.488C121.805 32.2213 121.682 31.864 121.682 31.416C121.682 30.872 121.89 30.4347 122.306 30.104C122.722 29.784 123.304 29.624 124.05 29.624C124.712 29.624 125.352 29.7413 125.97 29.976C126.578 30.2213 127.202 30.5573 127.842 30.984C128.472 31.4107 129.144 31.9067 129.858 32.472L129.138 33.336C128.424 32.7387 127.773 32.2427 127.186 31.848C126.6 31.4533 126.045 31.1547 125.522 30.952C125 30.7493 124.482 30.648 123.97 30.648C123.586 30.648 123.298 30.7227 123.106 30.872C122.914 31.0213 122.818 31.2133 122.818 31.448C122.818 31.7467 122.925 31.9547 123.138 32.072C123.341 32.2 123.581 32.264 123.858 32.264C124.253 32.264 124.573 32.1787 124.818 32.008C125.053 31.848 125.234 31.6453 125.362 31.4C125.49 31.1547 125.576 30.8987 125.618 30.632C125.661 30.376 125.682 30.1467 125.682 29.944V28.872H126.914V29.72C126.914 30.0187 126.882 30.3653 126.818 30.76C126.744 31.1653 126.605 31.5547 126.402 31.928C126.189 32.312 125.88 32.6267 125.474 32.872C125.069 33.128 124.53 33.256 123.858 33.256ZM138.258 19.048V20.184H136.578V29H135.346V25.112L135.602 26.008C135.25 25.5173 134.866 25.0747 134.45 24.68C134.034 24.2853 133.608 23.9707 133.17 23.736C132.733 23.5013 132.306 23.384 131.89 23.384C131.496 23.384 131.16 23.4907 130.882 23.704C130.616 23.9067 130.482 24.2107 130.482 24.616C130.482 24.936 130.594 25.2133 130.818 25.448C131.042 25.672 131.389 25.8747 131.858 26.056L131.25 27.192C130.6 26.9253 130.088 26.568 129.714 26.12C129.352 25.6613 129.17 25.144 129.17 24.568C129.17 24.0453 129.293 23.6133 129.538 23.272C129.794 22.92 130.114 22.6587 130.498 22.488C130.893 22.3173 131.293 22.232 131.698 22.232C132.253 22.232 132.76 22.328 133.218 22.52C133.677 22.712 134.104 22.9733 134.498 23.304C134.904 23.6347 135.288 24.0187 135.65 24.456L135.426 24.52C135.394 24.2747 135.373 24.0347 135.362 23.8C135.352 23.5547 135.346 23.3093 135.346 23.064V20.184H128.274V19.048H138.258Z" fill="#532D80"/>
<path d="M23.1089 13.432H43.4719V33.795H23.1089V13.432Z" fill="white"/>
<path d="M33.2899 7.321C30.0677 7.321 26.9178 8.27651 24.2386 10.0667C21.5594 11.8569 19.4712 14.4013 18.2381 17.3783C17.005 20.3553 16.6823 23.6311 17.311 26.7914C17.9396 29.9517 19.4913 32.8547 21.7697 35.1332C24.0482 37.4117 26.9512 38.9633 30.1115 39.592C33.2719 40.2206 36.5476 39.8979 39.5246 38.6648C42.5016 37.4317 45.046 35.3436 46.8362 32.6643C48.6264 29.9851 49.5819 26.8353 49.5819 23.613C49.5825 21.4734 49.1614 19.3546 48.3428 17.3777C47.5243 15.4008 46.3242 13.6046 44.8113 12.0916C43.2983 10.5787 41.5021 9.37865 39.5252 8.56008C37.5484 7.74152 35.4296 7.32047 33.2899 7.321V7.321ZM30.0319 30.944V16.282L39.8069 23.613L30.0319 30.944Z" fill="#FFCE39"/>
</svg>
